<svg width="60" height="60" viewBox="0 0 60 60" fill="none" xmlns="http://www.w3.org/2000/svg">
<rect width="60" height="60" rx="30" fill="#69C647"/>
<path d="M25.312 41.5C24.9282 41.4993 24.5513 41.3987 24.2182 41.2081C23.4682 40.7831 23.002 39.9581 23.002 39.0625V20.9375C23.002 20.0394 23.4682 19.2169 24.2182 18.7919C24.5592 18.5959 24.9466 18.4951 25.3399 18.5001C25.7331 18.505 26.1179 18.6155 26.4538 18.82L41.9445 28.0925C42.2673 28.2949 42.5334 28.576 42.7179 28.9094C42.9024 29.2429 42.9992 29.6177 42.9992 29.9987C42.9992 30.3798 42.9024 30.7546 42.7179 31.088C42.5334 31.4214 42.2673 31.7026 41.9445 31.905L26.4513 41.18C26.1075 41.3878 25.7137 41.4984 25.312 41.5Z" fill="white"/>
</svg>
