<svg width="32" height="32" viewBox="0 0 32 32" fill="none" xmlns="http://www.w3.org/2000/svg">
<circle cx="16" cy="16" r="14" fill="#25D366"/>
<path d="M22.4497 12.9575C22.0943 12.1721 21.5841 11.4671 20.9363 10.8594C20.2886 10.2575 19.5376 9.78174 18.7007 9.44926C17.8351 9.10532 16.9179 8.93335 15.9721 8.93335C15.0263 8.93335 14.1091 9.10532 13.2435 9.44926C12.4066 9.78174 11.6556 10.2518 11.0079 10.8594C10.3601 11.4671 9.84993 12.1721 9.49453 12.9575C9.12766 13.7715 8.93848 14.6428 8.93848 15.537C8.93848 17.102 9.52317 18.6038 10.5951 19.7962L10.0219 22.9203L13.0715 21.5617C13.983 21.9515 14.9517 22.1464 15.9664 22.1464C16.9122 22.1464 17.8294 21.9745 18.695 21.6305C19.5319 21.2981 20.2828 20.828 20.9306 20.2204C21.5783 19.6127 22.0885 18.9077 22.4439 18.1223C22.8108 17.3083 23 16.437 23 15.5428C23.0057 14.6428 22.8165 13.7772 22.4497 12.9575Z" fill="white"/>
<path d="M18.8266 16.8555C18.5285 16.7065 18.3107 16.6147 18.1559 16.5574C18.0585 16.523 17.8292 16.4198 17.7489 16.4829C17.4967 16.6893 17.2273 17.274 16.9407 17.3829C16.2299 17.2453 15.5706 16.7581 15.0547 16.2593C14.8254 16.0415 14.4012 15.4224 14.3095 15.2562C14.2923 15.0842 14.6019 14.8549 14.6707 14.7231C15.0261 14.3218 14.7567 14.0696 14.7108 13.9033C14.6305 13.7314 14.493 13.4218 14.3726 13.1696C14.2694 13.0034 14.2465 12.7569 14.063 12.6652C13.2834 12.2639 12.8363 13.0664 12.6529 13.4849C11.5465 16.1504 18.1961 21.2236 19.5489 17.7268C19.6177 17.423 19.589 17.3084 19.4858 17.1708C19.2795 17.0275 19.0387 16.9644 18.8266 16.8555Z" fill="#25D366"/>
</svg>
